<?xml version="1.0" encoding="utf-8"?>
<!-- Generator: Adobe Illustrator 16.0.4, SVG Export Plug-In . SVG Version: 6.00 Build 0)  -->
<!DOCTYPE svg PUBLIC "-//W3C//DTD SVG 1.1//EN" "http://www.w3.org/Graphics/SVG/1.1/DTD/svg11.dtd">
<svg version="1.1" id="Layer_1" xmlns="http://www.w3.org/2000/svg" xmlns:xlink="http://www.w3.org/1999/xlink" x="0px" y="0px"
	 width="113.205px" height="200px" viewBox="0 0 113.205 200" enable-background="new 0 0 113.205 200" xml:space="preserve">
<g>
	<g>
		<path fill="#D1472E" d="M105.629,7.571c0,4.181-3.389,7.572-7.574,7.572c-4.176,0-7.567-3.391-7.567-7.572
			C90.488,3.392,93.879,0,98.055,0C102.241,0,105.629,3.392,105.629,7.571z"/>
		<path fill="#D1472E" d="M52.813,7.571c0,4.181-3.395,7.572-7.569,7.572c-4.182,0-7.576-3.391-7.576-7.572
			C37.667,3.392,41.062,0,45.244,0C49.418,0,52.813,3.392,52.813,7.571z"/>
		<path fill="#D1472E" d="M79.221,7.571c0,4.181-3.388,7.572-7.57,7.572c-4.178,0-7.57-3.391-7.57-7.572
			c0-4.179,3.393-7.571,7.57-7.571C75.833,0,79.221,3.392,79.221,7.571z"/>
	</g>
	<g>
		<path fill="#D1472E" d="M86.794,33.983c0,4.179-3.393,7.569-7.573,7.569c-4.173,0-7.57-3.39-7.57-7.569
			c0-4.181,3.397-7.573,7.57-7.573C83.402,26.41,86.794,29.802,86.794,33.983z"/>
		<path fill="#D1472E" d="M33.976,33.983c0,4.179-3.384,7.569-7.567,7.569c-4.181,0-7.575-3.39-7.575-7.569
			c0-4.181,3.395-7.573,7.575-7.573C30.592,26.41,33.976,29.802,33.976,33.983z"/>
		<path fill="#D1472E" d="M60.389,33.983c0,4.179-3.39,7.569-7.576,7.569c-4.177,0-7.564-3.39-7.564-7.569
			c0-4.181,3.387-7.573,7.564-7.573C57,26.41,60.389,29.802,60.389,33.983z"/>
	</g>
	<g>
		<path fill="#D1472E" d="M67.958,60.387c0,4.181-3.383,7.571-7.569,7.571c-4.177,0-7.576-3.391-7.576-7.571
			s3.399-7.571,7.576-7.571C64.576,52.815,67.958,56.206,67.958,60.387z"/>
		<path fill="#D1472E" d="M15.146,60.387c0,4.181-3.392,7.571-7.575,7.571C3.394,67.958,0,64.567,0,60.387s3.394-7.571,7.571-7.571
			C11.754,52.815,15.146,56.206,15.146,60.387z"/>
		<path fill="#D1472E" d="M41.554,60.387c0,4.181-3.389,7.571-7.573,7.571c-4.178,0-7.568-3.391-7.568-7.571s3.39-7.571,7.568-7.571
			C38.166,52.815,41.554,56.206,41.554,60.387z"/>
	</g>
	<g>
		<path fill="#D1472E" d="M86.799,86.791c0,4.183-3.392,7.571-7.573,7.571c-4.175,0-7.57-3.388-7.57-7.571
			c0-4.178,3.396-7.57,7.57-7.57C83.408,79.221,86.799,82.613,86.799,86.791z"/>
		<path fill="#D1472E" d="M33.981,86.791c0,4.183-3.384,7.571-7.568,7.571c-4.179,0-7.574-3.388-7.574-7.571
			c0-4.178,3.396-7.57,7.574-7.57C30.598,79.221,33.981,82.613,33.981,86.791z"/>
		<path fill="#D1472E" d="M60.394,86.791c0,4.183-3.389,7.571-7.574,7.571c-4.18,0-7.567-3.388-7.567-7.571
			c0-4.178,3.387-7.57,7.567-7.57C57.005,79.221,60.394,82.613,60.394,86.791z"/>
		<path fill="#D1472E" d="M113.205,86.791c0,4.183-3.385,7.571-7.569,7.571c-4.18,0-7.574-3.388-7.574-7.571
			c0-4.178,3.395-7.57,7.574-7.57C109.82,79.221,113.205,82.613,113.205,86.791z"/>
	</g>
	<g>
		<path fill="#D1472E" d="M67.968,113.207c0,4.184-3.389,7.573-7.574,7.573c-4.177,0-7.574-3.39-7.574-7.573
			c0-4.181,3.397-7.57,7.574-7.57C64.58,105.636,67.968,109.026,67.968,113.207z"/>
		<path fill="#D1472E" d="M94.372,113.207c0,4.184-3.391,7.573-7.572,7.573c-4.177,0-7.573-3.39-7.573-7.573
			c0-4.181,3.396-7.57,7.573-7.57C90.981,105.636,94.372,109.026,94.372,113.207z"/>
	</g>
	<g>
		<path fill="#D1472E" d="M49.129,139.614c0,4.179-3.384,7.569-7.569,7.569c-4.179,0-7.57-3.391-7.57-7.569
			c0-4.182,3.392-7.573,7.57-7.573C45.745,132.041,49.129,135.432,49.129,139.614z"/>
		<path fill="#D1472E" d="M75.538,139.614c0,4.179-3.393,7.569-7.569,7.569c-4.183,0-7.574-3.391-7.574-7.569
			c0-4.182,3.392-7.573,7.574-7.573C72.145,132.041,75.538,135.432,75.538,139.614z"/>
	</g>
	<g>
		<path fill="#D1472E" d="M56.702,166.02c0,4.178-3.39,7.568-7.573,7.568c-4.173,0-7.569-3.391-7.569-7.568
			c0-4.183,3.396-7.573,7.569-7.573C53.312,158.447,56.702,161.837,56.702,166.02z"/>
	</g>
	<g>
		<path fill="#D1472E" d="M37.867,192.427c0,4.182-3.389,7.573-7.567,7.573c-4.182,0-7.574-3.392-7.574-7.573
			c0-4.18,3.392-7.57,7.574-7.57C34.478,184.857,37.867,188.248,37.867,192.427z"/>
	</g>
</g>
</svg>
