<?xml version="1.0" encoding="utf-8"?>
<!-- Generator: Adobe Illustrator 16.0.4, SVG Export Plug-In . SVG Version: 6.00 Build 0)  -->
<!DOCTYPE svg PUBLIC "-//W3C//DTD SVG 1.1//EN" "http://www.w3.org/Graphics/SVG/1.1/DTD/svg11.dtd">
<svg version="1.1" id="Layer_1" xmlns="http://www.w3.org/2000/svg" xmlns:xlink="http://www.w3.org/1999/xlink" x="0px" y="0px"
	 width="124.129px" height="32px" viewBox="0 0 124.129 32" enable-background="new 0 0 124.129 32" xml:space="preserve">
<g>
	<g>
		<g>
			<path fill="#383936" d="M12.692,25.192c-0.563,0.755-1.57,1.126-3.032,1.126c-1.488,0-2.542-0.538-3.153-1.629
				c-0.61-1.079-0.921-3.08-0.921-5.992v-5.538c0.034-2.541,0.371-4.362,0.981-5.465C7.19,6.579,8.245,6.028,9.731,6.028
				c1.464,0,2.469,0.395,3.021,1.175c0.551,0.791,0.85,2.216,0.9,4.278h5.582c-0.202-3.343-1.088-5.909-2.658-7.683
				c-1.558-1.785-3.836-2.684-6.845-2.684c-3.056,0-5.441,1.09-7.155,3.271C0.862,6.567,0,9.671,0,13.699v4.938
				c0,4.039,0.827,7.144,2.492,9.324c1.654,2.182,4.052,3.272,7.168,3.272c2.961,0,5.262-0.851,6.89-2.577
				c1.631-1.714,2.518-4.242,2.65-7.587h-5.56C13.554,23.06,13.243,24.425,12.692,25.192z"/>
			<path fill="#383936" d="M36.261,1.522l-4.65,21.262L26.999,1.522h-6.173l7.898,29.316h5.788l7.958-29.316H36.261z"/>
			<path fill="#383936" d="M59.836,18.553c2.673-1.558,4.004-4.279,4.004-8.174c0-2.829-0.768-5.022-2.289-6.556
				c-1.523-1.534-3.682-2.301-6.461-2.301h-8.88v29.316h5.561V20.123h2.768l4.146,10.715h5.98v-0.287L59.836,18.553z M57.428,14.01
				c-0.551,0.792-1.38,1.175-2.496,1.175H51.77V6.448h3.259c2.159,0,3.236,1.474,3.236,4.41
				C58.265,12.177,57.989,13.231,57.428,14.01z"/>
			<path fill="#383936" d="M78.189,19.883h3.895v5.369l-0.49,0.372c-0.685,0.468-1.569,0.694-2.673,0.694
				c-1.713,0-2.95-0.599-3.703-1.821c-0.743-1.21-1.128-3.151-1.128-5.824v-5.322c0.039-2.541,0.385-4.398,1.068-5.573
				c0.683-1.163,1.773-1.75,3.272-1.75c1.246,0,2.145,0.336,2.733,1.019c0.574,0.671,0.945,1.954,1.102,3.811h5.404
				c-0.241-3.354-1.113-5.812-2.637-7.382c-1.521-1.57-3.775-2.361-6.771-2.361c-3.178,0-5.596,1.09-7.263,3.271
				c-1.655,2.182-2.493,5.298-2.493,9.337v5.273c0.06,3.991,0.959,7.023,2.709,9.108c1.762,2.086,4.218,3.129,7.395,3.129
				c1.847,0,3.56-0.312,5.117-0.935c1.559-0.624,2.876-1.546,3.943-2.781V15.412h-9.48V19.883z"/>
		</g>
	</g>
	<g>
		<g>
			<path fill="#3A3A3A" d="M123.419,0H97.867c-0.384,0-0.694,0.312-0.694,0.707v30.611c0,0.371,0.311,0.683,0.694,0.683h25.552
				c0.385,0,0.71-0.312,0.71-0.683V0.707C124.129,0.312,123.804,0,123.419,0z M116.899,13.794l-12.512,15.114l4.254-10.392h-4.961
				l4.961-13.22h8.966l-5.896,8.498H116.899z"/>
		</g>
	</g>
</g>
</svg>
